# xmcd
#
# Track frame offsets:
#	150
#	47342
#	91217
#	127529
#	154534
#	177022
#	220488
#	235526
#	255204
#
# Disc length: 3724 seconds
#
# Revision: 1
# Processed by: cddbd v1.5.2PL0 Copyright (c) Steve Scherf et al.
# Submitted via: audiograbber 1.80
#
DISCID=590e8a09
DTITLE=Geoffrey Castle - Still Raining
DYEAR=1900
DGENRE=
TTITLE0=Farewell To Inwood
TTITLE1=Underhill's Waltz
TTITLE2=Tarot
TTITLE3=Direct
TTITLE4=Darwin
TTITLE5=Chango
TTITLE6=Wander This World
TTITLE7=Float Downstream
TTITLE8=Pacifying the Cat
EXTD=
EXTT0=
EXTT1=
EXTT2=
EXTT3=
EXTT4=
EXTT5=
EXTT6=
EXTT7=
EXTT8=
PLAYORDER=
